<svg xmlns="http://www.w3.org/2000/svg" width="21.04" height="21.04" viewBox="0 0 21.04 21.04">
  <path id="instagram" d="M10.447,36.951a5.394,5.394,0,1,0,5.393,5.394A5.385,5.385,0,0,0,10.447,36.951Zm0,8.9a3.507,3.507,0,1,1,3.506-3.507,3.513,3.513,0,0,1-3.506,3.507Zm6.872-9.122a1.258,1.258,0,1,1-1.258-1.258A1.255,1.255,0,0,1,17.319,36.73Zm3.572,1.277a6.227,6.227,0,0,0-1.7-4.408,6.265,6.265,0,0,0-4.407-1.7c-1.737-.1-6.942-.1-8.679,0A6.256,6.256,0,0,0,1.7,33.594,6.248,6.248,0,0,0,0,38c-.1,1.737-.1,6.944,0,8.681a6.227,6.227,0,0,0,1.7,4.408,6.273,6.273,0,0,0,4.407,1.7c1.737.1,6.942.1,8.679,0a6.224,6.224,0,0,0,4.407-1.7,6.268,6.268,0,0,0,1.7-4.408C20.99,44.946,20.99,39.744,20.891,38.007Zm-2.244,10.54a3.55,3.55,0,0,1-2,2c-1.385.549-4.67.423-6.2.423s-4.821.122-6.2-.423a3.55,3.55,0,0,1-2-2c-.549-1.385-.422-4.671-.422-6.2s-.122-4.822.422-6.2a3.55,3.55,0,0,1,2-2c1.385-.549,4.67-.423,6.2-.423s4.821-.122,6.2.423a3.55,3.55,0,0,1,2,2c.549,1.385.422,4.671.422,6.2S19.2,47.167,18.647,48.547Z" transform="translate(0.075 -31.825)"/>
</svg>
