<svg xmlns="http://www.w3.org/2000/svg" width="21.038" height="21.04" viewBox="0 0 21.038 21.04">
  <path id="pinterest" d="M21.038,18.52A10.52,10.52,0,0,1,7.406,28.569a11.826,11.826,0,0,0,1.306-2.757c.127-.492.653-2.5.653-2.5a2.817,2.817,0,0,0,2.409,1.209c3.173,0,5.459-2.918,5.459-6.545A6.174,6.174,0,0,0,10.748,11.9C6.209,11.9,3.8,14.944,3.8,18.265c0,1.544.823,3.466,2.133,4.076.2.093.305.051.352-.14.034-.144.212-.861.293-1.192a.315.315,0,0,0-.072-.3,4.143,4.143,0,0,1-.776-2.4,4.552,4.552,0,0,1,4.75-4.564,4.153,4.153,0,0,1,4.394,4.28c0,2.846-1.438,4.819-3.308,4.819a1.526,1.526,0,0,1-1.557-1.9,21.141,21.141,0,0,0,.869-3.5,1.321,1.321,0,0,0-1.332-1.48c-1.056,0-1.9,1.09-1.9,2.554a3.791,3.791,0,0,0,.314,1.561s-1.039,4.4-1.23,5.226a10.184,10.184,0,0,0-.038,3.02,10.521,10.521,0,1,1,14.353-9.8Z" transform="translate(0 -8)"/>
</svg>
