<svg xmlns="http://www.w3.org/2000/svg" width="21.04" height="21.04" viewBox="0 0 21.04 21.04">
  <path id="youtube" d="M35.533,67.292a3.414,3.414,0,0,0-1.86-2.663C32.032,64,25.453,64,25.453,64s-6.579,0-8.22.629a3.414,3.414,0,0,0-1.86,2.663,59.984,59.984,0,0,0,0,14.5,3.338,3.338,0,0,0,1.86,2.62c1.641.629,8.22.629,8.22.629s6.579,0,8.22-.629a3.338,3.338,0,0,0,1.86-2.62,55.774,55.774,0,0,0,.44-7.249A55.774,55.774,0,0,0,35.533,67.292ZM23.3,78.991v-8.9l5.5,4.449-5.5,4.449Z" transform="translate(-14.933 -64)"/>
</svg>
